<?xml version="1.0" encoding="utf-8"?>
<!-- Generator: Adobe Illustrator 22.0.0, SVG Export Plug-In . SVG Version: 6.00 Build 0)  -->
<svg version="1.1" id="Layer_1" xmlns="http://www.w3.org/2000/svg" xmlns:xlink="http://www.w3.org/1999/xlink" x="0px" y="0px"
	 viewBox="0 0 648 478.8" style="enable-background:new 0 0 648 478.8;" xml:space="preserve">
<style type="text/css">
	.st0{fill:#FFFFFF;stroke:#FFFFFF;stroke-miterlimit:10;}
	.st1{fill-rule:evenodd;clip-rule:evenodd;fill:#FFFFFF;stroke:#FFFFFF;stroke-miterlimit:10;}
	.st2{fill-rule:evenodd;clip-rule:evenodd;fill:#FFFFFF;}
	.st3{fill:#FFFFFF;}
</style>
<path class="st0" d="M537.2,379.2c0.3-1.6,1.6-2.8,3.1-3.3c0-2.5-0.3-4.9-1-7.3c-0.1-0.3-0.2-0.5-0.3-0.8c-0.1-0.2-0.2-0.4-0.3-0.6
	c-0.2,0-0.3,0.1-0.5,0.1c-2.8,4.8-5.1,9.8-8,14.5c-1.2,2-2.7,4.2-4.3,6.3c-0.3,0.7-0.8,1.4-1.5,1.9c-0.6,0.8-1.2,1.5-1.9,2.2
	c-0.3,0.5-0.7,1-1.2,1.3c-0.7,0.8-1.5,1.6-2.3,2.2c-0.5,0.5-0.9,1.1-1.4,1.6c-4.4,4.6-8.9,8.6-13.4,11.8c-4.6,3.2-9,5.6-13.3,7.2
	c-4.3,1.5-8,2.3-11,2.3c-7.5,0-12.5-3.4-14.8-10.2c-2.4-6.8-3.4-15.8-3.1-27.1c0.3-11.3,1.4-24,3.1-38.2c1.7-14.2,2.9-28.5,3.5-43
	c0.6-14.5-0.1-28.6-2-42.4c-1.9-13.7-6.2-25.8-13-36.3c10.7-7.4,20.7-15.6,29.9-24.5c9.2-9,16.9-18.4,23.1-28.2
	c6.2-9.9,10.6-20.1,13.2-30.8c2.5-10.6,2.7-21.4,0.4-32.2c-2.5-11.7-8-21.7-16.6-29.9c-8.6-8.2-19.2-14.9-31.7-20.1
	c10.2-8,20.5-14.4,31.1-19.2c26.7-12.1,26.1-19,25.5-23.3c-1-7.5-22.1-5.6-49.4,4.1c-18.2,6.5-35.8,15.4-52.8,26.8
	c-12.5-1.5-25.5-2.2-39-2.1c-13.5,0.2-27.2,1.2-41,3.2c-13.8,2-27.6,4.8-41.4,8.3c-13.8,3.5-26.8,7.9-39.2,13.2
	c-24.1,9.9-44.4,21.3-60.7,34.3c-16.4,13-29.2,26.4-38.4,40.3c-9.2,13.9-15,27.6-17.3,41.2c-2.3,13.6-1.2,25.8,3.3,36.6
	c4.5,10.8,12.2,19.8,23.1,26.8c10.9,7.1,24.9,11.3,41.9,12.5l17.1-19.4c-6.5-1.9-11.2-5.7-14.3-11.6c-3-5.9-4.2-13-3.5-21.3
	c0.7-8.3,3.3-17.4,7.8-27.3c4.4-9.9,10.8-19.8,19.2-29.9c8.4-10,18.7-19.8,31.1-29.2c12.4-9.4,26.6-17.7,42.7-24.8
	c25.4-10.5,49.3-17.4,71.7-20.8c-22.5,20.7-43.6,44.3-63.3,70.8c-19.7,26.5-38.6,53.9-56.6,81.9c-18,28.1-35.3,55.5-51.7,82.4
	c-16.4,26.8-32.5,50.8-48.3,71.7c-15.7,21-31.3,38-46.6,50.9c-15.3,13-30.8,19.4-46.4,19.4c-16.5,0-28.6-4.8-36.4-14.3
	c-7.7-9.6-11.7-21.2-11.7-34.9c-0.1-13.7,3.3-28.2,10.2-43.5c6.9-15.3,16.7-28.8,29.2-40.5c-2.4,8.9-2,16.4,1.2,22.2
	c3.2,5.9,8.8,8.8,17,8.8c8.7,0,16.9-2,24.5-6c7.6-4,14.3-9,20-15c5.7-6,10-12.5,13.1-19.4c3-6.9,4.5-13.4,4.3-19.4
	c-0.2-6-2.3-11-6.4-15c-4.1-4-10.5-6-19.2-6c-18.6,0-36,5.2-52.2,15.5c-16.2,10.3-29.9,23.4-41,39.1c-11.2,15.7-19.3,32.6-24.5,50.7
	c-5.2,18.1-6,34.9-2.4,50.7c3.6,15.7,12,28.8,25.2,39.1c13.2,10.3,32.6,15.5,58.2,15.5c23.4,0,45.8-6.6,67.2-19.7
	c21.3-13.1,41.9-30.5,61.8-52.1c19.8-21.6,39.1-46.1,57.9-73.6c18.7-27.5,37.1-55.4,55-83.8c4.2,4.3,9.8,7.1,16.8,8.3
	c7,1.2,14.9,1.2,23.7,0c8.8-1.2,18.2-3.5,28.2-6.9c10-3.4,20-7.7,30-13c5.4,4.6,8,11.6,7.8,20.8c-0.2,9.3-1.9,19.9-5.2,31.9
	c-3.2,12-7.4,25.1-12.4,39.1c-5,14-9.7,28-14,41.9c-4.3,13.9-7.5,27.3-9.8,40.3c-2.3,13-2.3,24.4-0.1,34.3c2.2,9.9,7.2,17.7,15,23.6
	c7.8,5.9,19.9,8.8,36.1,8.8c9.3,0,18.6-2.4,28-7.2c9.3-4.8,18.2-11,26.5-18.7c8.3-7.7,16-16.4,23-25.9c6.8-9.3,12.4-18.5,16.9-27.8
	c-1.4-1.1-2.2-2.8-1.7-5c0,0,0-0.1,0-0.1l-2-3.9c0.9-0.2,1.7-0.5,2.6-0.8C536.7,385.9,536.6,382.5,537.2,379.2z M436.8,203.8
	c-3.2-2.2-6.7-4.1-10.6-5.8c-3.9-1.7-8.1-3.2-12.5-4.4c-10-2.5-19.7-3.2-28.9-2.3c-9.2,0.9-17.4,2.9-24.5,6
	c15.2-23.8,30.2-46.1,45-66.9c14.8-20.8,29.8-39.1,45.1-54.9c12.4,3.1,22.5,8.1,30.3,15c7.8,6.9,12.8,15.4,15.1,25.2
	c1.3,6.5,0.5,14-2.7,22.5c-3.1,8.5-7.6,17-13.3,25.5c-5.7,8.5-12.4,16.4-20.1,23.6C451.8,194.7,444.3,200.1,436.8,203.8z"/>
<g>
	<path class="st1" d="M601.1,0.1c-29.4-1.5-53.5,22.6-52,52c1.3,25.1,21.7,45.6,46.9,46.9c29.4,1.5,53.5-22.6,52-52
		C646.7,21.8,626.2,1.3,601.1,0.1z M600.6,90.3c-24.3,1.2-44.2-18.7-43-43c1.1-20.8,17.9-37.7,38.7-38.7c24.3-1.2,44.2,18.7,43,43
		C638.3,72.4,621.4,89.3,600.6,90.3z"/>
</g>
<g>
	<g>
		<path class="st0" d="M608.5,73l-7.7-13.8h-1h-10.1V73h-10.9V24.7h21c12.6,0,19.8,6.1,19.8,16.8c0,7.5-3.2,12.8-9,15.6L620.9,73
			H608.5z M589.7,50.1h10.1c6,0,9.5-2.8,9.5-8.3c0-5.4-3.5-8.1-9.5-8.1h-10.1V50.1z"/>
	</g>
</g>
<g>
	<path class="st2" d="M535,390.3c1.8-1.1,3.3-2.9,4.2-4.8"/>
	<g>
		<path class="st3" d="M536,391.9c2.1-1.4,3.8-3.2,4.9-5.5c0.4-0.9,0.3-2-0.7-2.6c-0.8-0.5-2.1-0.3-2.6,0.7
			c-0.8,1.7-1.9,3.1-3.5,4.2C532.1,390,533.9,393.3,536,391.9L536,391.9z"/>
	</g>
</g>
<g>
	<path class="st2" d="M538.7,375.6c-1.4,2.9-1.7,6.2-1.6,9.4c0,3.2,0.4,6.4,0,9.6c-0.2,1.6-0.6,3.3-1.6,4.5c-1-3.5,1-7,2.1-10.4
		c1.3-4.1,1.3-8.6,0-12.7"/>
	<g>
		<path class="st3" d="M537.1,374.6c-1.4,3.4-1.9,6.6-1.9,10.3c0,4.3,1.1,9.4-1.3,13.2c1.1,0.1,2.3,0.3,3.4,0.4
			c-0.8-4.4,2.2-8.6,2.8-12.8c0.5-3.5,0.2-6.9-0.7-10.3c-0.6-2.3-4.2-1.3-3.6,1c1.3,4.9,0.9,9.2-0.8,13.9c-1.1,3.2-1.9,5.8-1.3,9.2
			c0.3,1.7,2.6,1.7,3.4,0.4c4.5-6.9,0.1-16,3.2-23.5C541.2,374.3,538,372.4,537.1,374.6L537.1,374.6z"/>
	</g>
</g>
<g>
	<path class="st2" d="M539.6,374.5c1,3.9-0.2,7.9-1,11.8c-0.8,4-1.4,8.1-1.8,12.2c2.1-3.7,2-8.4,2.2-12.5c0.2-4.8,0.2-9.5-0.1-14.3"
		/>
	<g>
		<path class="st3" d="M537.8,374.9c0.8,4.5-0.7,8.9-1.5,13.3c-0.6,3.3-1.1,6.7-1.4,10.1c-0.2,1.8,2.7,2.6,3.5,0.9
			c3.9-8.1,2.9-19,2.4-27.7c-0.1-2.4-3.9-2.4-3.8,0c0.4,7.9,1.6,18.6-1.9,25.9c1.2,0.3,2.3,0.6,3.5,0.9c0.8-7.9,4.2-16.5,2.8-24.4
			C541,371.6,537.4,372.6,537.8,374.9L537.8,374.9z"/>
	</g>
</g>
<g>
	<path class="st3" d="M535.4,389.8"/>
	<g>
		<path class="st3" d="M535.4,390.5c0.8,0,0.8-1.3,0-1.3C534.6,389.2,534.6,390.5,535.4,390.5L535.4,390.5z"/>
	</g>
</g>
<g>
	<path class="st3" d="M533.4,395.4c-0.3,0.8-0.5,1.6-0.7,2.4c0,0.1-0.1,0.3,0,0.4c0.1,0.1,0.2,0.2,0.4,0.3c0.4,0.1,0.8,0.1,1.2,0"/>
	<g>
		<path class="st3" d="M531,394.7c-0.4,1.2-1.1,2.8-0.7,4.1c0.5,2,2.9,2.6,4.7,2c1.3-0.4,2.2-1.8,1.7-3.1c-0.4-1.3-1.7-2.1-3.1-1.7
			c-0.4,0.1,0,0,0.2,0c0.1,0,0.5,0.3,0.2,0.1c0.3,0.3,0.6,0.6,0.9,0.9c0,0-0.1-0.1-0.1-0.1c0.1,0.4,0.2,0.8,0.3,1.3
			c-0.1,0.3-0.1,0.4-0.1,0.2c0-0.1,0.1-0.2,0.1-0.3c0.1-0.2,0.1-0.4,0.2-0.7c0.1-0.4,0.3-0.9,0.4-1.3c0.4-1.2-0.5-2.8-1.7-3.1
			C532.7,392.6,531.5,393.4,531,394.7L531,394.7z"/>
	</g>
</g>
<g>
	<path class="st3" d="M522.8,398c0.8-0.7,1.7-1.4,2.5-2c0.5-0.4,0.9-0.8,1.2-1.3c0.3-0.6,0.3-1.4,0.8-1.9c-0.9,1-1.8,2.1-2.5,3.3"/>
	<g>
		<path class="st3" d="M524.6,399.7c1.1-0.9,2.2-1.6,3.2-2.6c0.4-0.4,0.8-0.9,1-1.5c0.3-0.6,0.4-1.3,0.7-1.7c1.6-2.3-2-5.1-3.9-3
			c-1.1,1.2-2,2.4-2.9,3.8c-1.7,2.7,2.6,5.2,4.3,2.5c0.6-1,1.3-1.9,2.1-2.8c-1.3-1-2.6-2-3.9-3c-0.4,0.5-0.6,1.1-0.7,1.7
			c0,0-0.1,0.4,0,0.2c0,0-0.3,0.3-0.4,0.4c-0.9,0.9-2,1.6-3,2.4c-1.1,0.8-0.9,2.7,0,3.5C522.1,400.8,523.5,400.6,524.6,399.7
			L524.6,399.7z"/>
	</g>
</g>
<path class="st0" d="M541.1,381c0-0.4-0.1-0.8-0.2-1.1c0.2-2.6-0.1-5.2-0.9-7.8c-0.1-1-0.3-2-0.6-3.1c-0.2-0.7-1.3-0.5-1.2,0.3
	c-0.3-0.3-0.9-0.3-1.1,0.1c-0.2,0.1-0.4,0.3-0.4,0.6c0,0.7,0,1.3,0,2c-0.6,1.3-1.7,2.2-1.9,3.9c-0.2,1.2,0.1,2.2,0.4,3.2
	c0,0.4,0,0.7,0,1.1c0,0.1,0,0.2,0,0.2c-0.5,1.6-2.1,4.9-0.7,6.4c0,0,0,0.1,0,0.1c-0.2,0-0.4,0.1-0.5,0.3c-0.9,1.3-1.5,2.8-1.9,4.3
	c-0.1,0.3,0,0.5,0.2,0.6c0,0,0,0,0,0c-0.2,0.2-0.1,0.5,0,0.7c-0.1,0.3-0.3,0.6-0.4,1c-0.2,0.5,0.4,0.9,0.8,0.7
	c0.1,0.2,0.3,0.4,0.5,0.4c0,0-0.1,0.1-0.1,0.1c-0.6,1.1-0.7,1.3-0.6,2.5c0,0.3,0.2,0.7,0.5,1.1c0,0.4,0,0.8,0,1.2
	c0,0.1,0,0.1,0.1,0.2c-0.2,0-0.3-0.1-0.5-0.1c-1.5-0.2-2.3-1.1-2.3-2.7c0,0,0,0,0,0c0-0.1,0.1-0.1,0.1-0.2c-0.4,0.7,0.7,1.3,1.1,0.6
	c0.8-1.2,0.6-1,0.8-2.4c0.1-0.5-0.6-0.8-0.9-0.5c-0.3,0.2-0.5,0.4-0.7,0.5c0.1-1.3,0.1-2.4-0.3-3.9c-0.1-0.6-1.1-0.6-1.2,0
	c0,0.1,0,0.2-0.1,0.3c-0.2-0.4-0.8-0.4-1.1,0c-1,1.6-0.8,2.8,0,4.5c0.1,0.2,0.2,0.3,0.4,0.3c0.1,0.9,0.3,1.9,0.9,2.8
	c1.1,1.5,2.5,2.3,4.1,2.7c0,0,0,0,0,0c-0.1,0.8,0.9,1.1,1.2,0.3c0-0.1,0-0.1,0.1-0.2c0.1,0,0.3,0,0.4,0c0.4,0,0.6-0.3,0.6-0.6
	c0-0.1,0-0.2,0-0.2c0.3,0.1,0.6,0.1,0.9-0.2c2.7-3.5,3.6-8.9,4.3-13.1C541.2,385.6,541.3,383.3,541.1,381z M534.6,395.3
	c-0.1,0.3-0.1,0.5-0.2,0.8c-0.1,0.5,0.3,0.8,0.7,0.8c-0.1,0.4-0.3,0.8-0.4,1.2c-0.1,0.2-0.1,0.3-0.2,0.5c-0.1-0.3-0.3-0.5-0.4-0.8
	c0-0.9,0.1-1.9,0.2-2.5c0-0.1,0-0.1,0-0.2C534.3,395.2,534.5,395.3,534.6,395.3z"/>
</svg>
