<?xml version="1.0" encoding="utf-8"?>
<!-- Generator: Adobe Illustrator 22.0.0, SVG Export Plug-In . SVG Version: 6.00 Build 0)  -->
<svg version="1.1" id="Layer_1" xmlns="http://www.w3.org/2000/svg" xmlns:xlink="http://www.w3.org/1999/xlink" x="0px" y="0px"
	 viewBox="0 0 1985.9 488.6" style="enable-background:new 0 0 1985.9 488.6;" xml:space="preserve">
<style type="text/css">
	.st0{fill-rule:evenodd;clip-rule:evenodd;fill:#FFFFFF;}
	.st1{fill:#FFFFFF;}
</style>
<path class="st0" d="M503,27.9c-10.5,4.8-20.9,11.2-31.1,19.2c12.5,5.2,23.1,12,31.7,20.1c8.6,8.2,14.1,18.1,16.6,29.9
	c2.2,10.8,2.1,21.5-0.4,32.2c-2.5,10.6-6.9,20.9-13.2,30.8c-6.2,9.9-14,19.3-23.1,28.2c-9.2,8.9-19.1,17.1-29.9,24.5
	c6.8,10.5,11.1,22.6,13,36.3c1.9,13.7,2.6,27.9,2,42.4c-0.6,14.5-1.7,28.9-3.5,43c-1.7,14.2-2.8,26.9-3.1,38.2
	c-0.3,11.3,0.7,20.3,3.1,27.1c2.4,6.8,7.3,10.2,14.8,10.2c3,0,6.7-0.8,11-2.3c4.3-1.5,8.8-3.9,13.3-7.2c4.6-3.2,9.1-7.2,13.4-11.8
	c1.7-1.8,3.4-3.7,4.9-5.8c-1.1,0-2.3-0.1-3.5-0.2c-12.2-1-21.6-4.8-28.2-11.5c-6.7-6.7-11-15.1-12.8-25.1c-1.9-10-1.5-21.2,1.3-33.3
	c2.7-12.2,7.5-24.3,14.3-36.2c6.8-12,15.5-23.2,26-33.7c10.6-10.5,22.8-19,36.7-25.5c13.9-6.5,29.3-10.4,46.2-11.8
	c16.9-1.4,35,1,54.4,7.2c4.5,1.4,7.8,3.8,9.9,7c2.1,3.2,3,6.3,2.5,9.1c-0.5,2.9-2.4,5.1-5.6,6.8c-3.3,1.7-8.1,1.8-14.5,0.4
	c-10.9-2.6-21.4-3-31.5-1.1c-10.1,1.9-19.6,5.4-28.6,10.4c-8.9,5-17.1,11.2-24.6,18.6c-7.5,7.4-14.1,15.2-19.9,23.3
	c-5.8,8.1-10.5,16.3-14.2,24.4c-3.7,8.1-6.2,15.6-7.5,22.4c-1.3,6.8-1.4,12.5-0.3,17c1.1,4.5,3.8,7.2,8.1,7.9c5,1,9.9-0.5,14.9-4.3
	c4.9-3.8,9.8-9,14.6-15.4c4.8-6.5,9.3-13.8,13.6-22.1c4.3-8.2,8.1-16.2,11.5-23.8c2.4-7.7,4.9-14.7,7.5-21.2
	c2.5-6.5,4.8-11.5,6.9-15.1c2.3-4.5,6.3-7.2,11.8-7.9c5.5-0.7,11.1,0,16.6,2.2c5.5,2.2,10,5.5,13.4,10c3.4,4.5,4.2,10,2.2,16.5
	c-1.4,4.3-3.7,9.4-7,15.2c-3.3,5.9-7,11.8-10.9,17.9c-3.9,6.1-7.8,12.1-11.6,18.1c-3.8,6-6.9,11.3-9.2,16c-2.3,4.7-3.5,8.3-3.5,10.9
	c0,2.6,1.8,3.8,5.4,3.6c5.5-0.5,10.9-2.8,16.2-7c5.3-4.2,10.3-9.3,15.1-15.2c4.8-6,9.1-12.3,12.9-19c3.3-5.7,6-10.8,8.2-15.5
	c1.6-6,3.4-12.2,5.5-18.6c6.1-18.6,13.4-37.7,21.8-57.2c8.4-19.5,17.4-38.8,27-58.1c9.6-19.2,18.6-36.8,27.1-52.5
	c8.5-15.8,15.9-29.1,22.2-40c6.3-10.9,10.3-17.9,12.1-21c2.3-4.1,5.4-6.4,9.2-7c3.8-0.6,7.9,0.1,12.3,2c4.3,1.9,8.7,4.8,12.9,8.6
	c4.3,3.8,3.9,2.3,7,7.1c3.2,4.8,5.5,9.7,7,14.7c1.5,5,1.6,9.7,0.2,14c-1.1,3.4-4.4,9.4-10,18.3c-34,53.7-67.8,112.9-100.4,168.2
	c-8.4,14.3-15.3,27.1-20.7,38.4c-5.3,11.2-8.6,20.4-9.9,27.6c-1.2,7.2,0.6,11.2,5.6,12.2c5.2,1,10.5-0.6,16-4.7
	c5.4-4.1,10.5-9.3,15.1-15.6c4.7-6.3,9-13.1,13-20.3c3.6-6.5,6.6-12.3,8.8-17.2c0.6-2.9,1.2-5.8,2-8.8c4.2-15.7,11.3-30.3,21.4-43.9
	c10.1-13.6,22.9-24.9,38.4-33.9c15.5-9,33.3-13.4,53.4-13.4c13.1,0,23.1,2.2,29.9,6.6c6.8,4.4,11,10.1,12.8,17
	c1.8,6.9,1.4,14.6-1.1,23.1c-2.5,8.5-6.6,16.7-12.2,24.6c-5.7,7.9-12.5,15.1-20.4,21.5c-7.9,6.5-16.3,11.2-25.3,14.3
	c-11.9,4.1-22.1,6.2-30.5,6.5c-8.5,0.2-15.8-0.2-22-1.4c-2.4,6.5-4.2,12.6-5.4,18.5c-1.2,5.9-1.3,11-0.4,15.4
	c0.9,4.4,2.9,7.9,5.9,10.4c3,2.5,7.4,3.8,13.1,3.8c12.7,0,24.1-2.2,34.3-6.6c10.2-4.4,19.1-9.9,26.8-16.3c7.7-6.5,14-13.2,19.1-20.3
	c4.7-6.6,8.3-12.4,10.6-17.5c1.8-6.8,4-13.9,6.4-21.1c4.7-13.9,11.5-27.3,17.8-42c6.3-14.7,14.1-30,20.9-44.1
	c-7.2,0.7-16.6,1.5-23,2.3c-6.4,0.8-12.1,1.9-17.2,3c-4.8,1-8.6,1-11.3,0.2c-2.7-0.8-4.3-2.2-4.7-3.9c-0.4-1.8,0.3-3.9,2.2-6.3
	c1.9-2.4,5-4.5,9.4-6.5c9-4.3,18.1-7.8,27.3-10.6c9.2-2.7,21.3-5.1,31.2-7c5.2-10,9.8-20,14.7-28.9c4.9-9,8.9-17.5,12.9-24.6
	c4-7.2,5.6-12.3,8.5-17.2c2.8-4.9,4.9-8.3,6.1-10.2c2.3-4.1,5.3-6.5,8.9-7.2c3.6-0.7,7.4-0.1,11.4,1.8c4,1.9,7.9,4.7,11.9,8.4
	c3.9,3.7,7.3,7.8,10.1,12.4c3.7,6,4.1,17.7,2,24.4c-0.6,1.9-2,4.8-4.3,8.8c-2.3,3.9-5.1,8.7-8.4,14.2c5.9-1.2,13.1-1.3,20.2-1.6
	c1.7-2.6,3.3-5.2,4.7-7.7c4.9-9,9.3-17,13.3-24.2c4-7.2,7.4-13.2,10.2-18.1c2.8-4.9,5-8.3,6.1-10.2c9.1-15.1,19.5-7.7,30,2.2
	c10.9,10.3,15.1,27.9,10.8,42c-0.6,1.9-2,4.8-4.3,8.8c-2.3,3.9-5.1,8.7-8.4,14.2c10.6-2.2,26.6-6,37.6-8.8
	c11-2.9,22.5-6.6,34.7-11.1c3.9-1.4,6.7-1.3,8.4,0.4c1.7,1.7,2.6,4.1,2.6,7.4c0,3.2-0.8,7.1-2.2,11.5c-1.5,4.4-3.4,8.7-5.9,12.9
	c-2.4,4.2-5.2,7.8-8.3,10.9c-3.1,3.1-6.4,5.1-9.7,6.1c-1.9,0.5-5.3,1-10.1,1.4c-4.8,0.5-10.6,1-17.3,1.6c-6.7,0.6-14.2,1.1-22.5,1.6
	c-8.3,0.5-24.2,1.1-33.1,1.8c-15.7,23.9-28.4,48-43.4,72.3c-8.9,14.4-25.6,50.8-32.3,67.4c-3.6,9-5.5,16.3-5.7,21.9
	c-0.2,5.6,1.9,8.9,6.4,9.9c5.2,1,10.5-0.6,16-4.7c5.4-4.1,10.5-9.3,15.1-15.6c4.7-6.3,9-13.1,13-20.3c3.8-6.8,6.8-12.8,9.2-17.9
	c2.8-8.3,6.5-16.6,11.1-24.8c6.8-12,15.5-23.2,26-33.7c10.6-10.5,22.8-19,36.7-25.5c13.9-6.5,29.3-10.4,46.2-11.8
	c16.9-1.4,35,1,54.4,7.2c4.5,1.4,7.8,3.8,9.9,7c2.1,3.2,3,6.3,2.5,9.1c-0.5,2.9-2.4,5.1-5.6,6.8c-3.3,1.7-8.1,1.8-14.5,0.4
	c-10.9-2.6-21.4-3-31.5-1.1c-10.1,1.9-19.6,5.4-28.6,10.4c-8.9,5-17.1,11.2-24.6,18.6c-7.5,7.4-14.1,15.2-19.9,23.3
	c-5.8,8.1-10.5,16.3-14.2,24.4c-3.7,8.1-6.2,15.6-7.5,22.4c-1.3,6.8-1.4,12.5-0.3,17c1.1,4.5,3.8,7.2,8.1,7.9c5,1,9.9-0.5,14.9-4.3
	c4.9-3.8,9.8-9,14.6-15.4c4.8-6.5,9.3-13.8,13.6-22.1c4.3-8.2,8.1-16.2,11.5-23.8c2.4-7.7,4.9-14.7,7.5-21.2
	c2.5-6.5,4.8-11.5,6.9-15.1c2.3-4.5,6.3-7.2,11.8-7.9c5.5-0.7,11.1,0,16.6,2.2c5.5,2.2,10,5.5,13.4,10c3.4,4.5,4.2,10,2.2,16.5
	c-1.4,4.3-3.7,9.4-7,15.2c-3.3,5.9-7,11.8-10.9,17.9c-3.9,6.1-7.8,12.1-11.6,18.1c-3.8,6-6.9,11.3-9.2,16c-2.3,4.7-3.5,8.3-3.5,10.9
	c0,2.6,1.8,3.8,5.4,3.6c5.5-0.5,10.9-2.8,16.2-7c5.3-4.2,10.3-9.3,15.1-15.2c4.8-6,9.1-12.3,12.9-19c3.8-6.7,6.9-12.7,9.3-17.9
	c2.6-5.3,5.5-8.8,8.8-10.8s6.2-2.4,8.8-1.4c2.6,1,4.3,3.2,5.1,6.8c0.8,3.6-0.1,8.4-2.7,14.3c-2.4,6-6.1,13.3-11.1,21.9
	c-5,8.6-10.9,16.9-17.8,24.7c-6.9,7.9-14.7,14.6-23.4,20.3c-8.7,5.6-18.1,8.4-28.1,8.4c-10.3,0-17.3-3.6-20.9-10.9
	c-3.7-7.3-5.3-16.3-4.9-27.1c-7.1,10.5-15.3,19.4-24.5,26.5c-9.2,7.2-19.5,10.3-30.7,9.3c-12.2-1-21.6-4.8-28.2-11.5
	c-5.6-5.6-9.5-12.4-11.8-20.4c-1.7,2.2-3.5,4.3-5.3,6.4c-7,8.1-14.8,14.9-23.4,20.4c-8.6,5.5-17.9,7.9-27.9,7.2
	c-10-0.7-17.4-3.9-22.2-9.7c-4.4-5.3-7.2-12.1-8.2-20.6c-0.7,0.9-1.5,1.8-2.2,2.6c-7,8.1-14.8,14.9-23.4,20.4
	c-8.6,5.5-17.9,7.9-27.9,7.2c-10-0.7-17.4-3.9-22.2-9.7c-4.8-5.7-7.6-13.3-8.4-22.8c-0.1-1.4-0.2-2.8-0.3-4.2
	c-2.8,2.7-5.7,5.4-8.8,8c-9.4,7.9-20.3,14.6-32.9,20.1c-12.5,5.5-26.4,8.2-41.7,8.2c-17.9,0-31.9-4.5-41.8-13.4
	c-8-7.3-13.7-16-16.9-26.4c-3,4.3-6.3,8.5-9.8,12.5c-7,8.1-14.8,14.9-23.4,20.4c-8.6,5.5-17.9,7.9-27.9,7.2
	c-12.2-0.7-20.3-5.7-24.5-14.9c-2-4.5-3.4-9.6-4-15.4c-0.4,0.5-0.9,1-1.3,1.6c-6.9,7.9-14.7,14.6-23.4,20.3
	c-8.7,5.6-18.1,8.4-28.1,8.4c-10.3,0-17.3-3.6-20.9-10.9c-3.7-7.3-5.3-16.3-4.9-27.1c-7.1,10.5-15.3,19.4-24.5,26.5
	c-5,3.9-10.3,6.6-15.8,8.1l4.1,8.1c-4.6,9.6-10.3,19.1-17.3,28.7c-7,9.6-14.6,18.2-23,25.9c-8.3,7.7-17.2,14-26.5,18.7
	c-9.3,4.8-18.7,7.2-28,7.2c-16.2,0-28.3-2.9-36.1-8.8c-7.8-5.9-12.9-13.7-15-23.6c-2.2-9.9-2.1-21.3,0.1-34.3
	c2.3-13,5.5-26.4,9.8-40.3c4.3-13.9,8.9-27.9,14-41.9c5-14,9.2-27.1,12.4-39.1c3.2-12,5-22.7,5.2-31.9c0.2-9.3-2.4-16.2-7.8-20.8
	c-10,5.2-20,9.6-30,13c-10,3.4-19.4,5.7-28.2,6.9c-8.8,1.2-16.7,1.2-23.7,0c-7-1.2-12.6-4-16.8-8.3c-17.9,28.4-36.2,56.3-55,83.8
	c-18.7,27.5-38,52-57.9,73.6c-19.8,21.6-40.4,39-61.8,52.1c-21.3,13.1-43.7,19.7-67.2,19.7c-25.5,0-44.9-5.2-58.2-15.5
	c-13.2-10.3-21.6-23.4-25.2-39.1c-3.6-15.7-2.7-32.6,2.4-50.7c5.2-18.1,13.3-34.9,24.5-50.7c11.2-15.7,24.8-28.8,41-39.1
	c16.2-10.3,33.6-15.5,52.2-15.5c8.7,0,15.1,2,19.2,6c4.1,4,6.2,9,6.4,15c0.2,6-1.2,12.5-4.3,19.4c-3,6.9-7.4,13.4-13.1,19.4
	c-5.7,6-12.3,11-20,15c-7.6,4-15.8,6-24.5,6c-8.1,0-13.8-2.9-17-8.8c-3.2-5.9-3.6-13.3-1.2-22.2c-12.5,11.7-22.3,25.2-29.2,40.5
	c-6.9,15.3-10.3,29.8-10.2,43.5c0.1,13.7,4,25.4,11.7,34.9c7.7,9.6,19.9,14.3,36.4,14.3c15.6,0,31.1-6.5,46.4-19.4
	c15.3-13,30.9-29.9,46.6-50.9c15.7-21,31.8-44.9,48.3-71.7s33.7-54.3,51.7-82.4s36.9-55.4,56.6-81.9c19.7-26.5,40.8-50.1,63.3-70.8
	C367.1,69,343.1,76,317.8,86.5c-16.1,7.1-30.4,15.4-42.7,24.8c-12.4,9.4-22.7,19.1-31.1,29.2c-8.4,10-14.8,20-19.2,29.9
	c-4.4,9.9-7,19-7.8,27.3c-0.7,8.3,0.4,15.4,3.5,21.3c3,5.9,7.8,9.7,14.3,11.6l-17.1,19.4c-17-1.2-31-5.4-41.9-12.5
	c-10.9-7.1-18.6-16-23.1-26.8c-4.5-10.8-5.6-23-3.3-36.6c2.3-13.6,8.1-27.3,17.3-41.2c9.2-13.9,22-27.3,38.4-40.3
	c16.4-13,36.6-24.4,60.7-34.3c12.4-5.2,25.5-9.6,39.2-13.2c13.8-3.5,27.5-6.3,41.4-8.3c13.8-2,27.5-3.1,41-3.2
	c13.5-0.2,26.5,0.5,39,2.1c17-11.4,34.6-20.4,52.8-26.8c27.3-9.7,48.3-11.6,49.4-4.1C529.1,9,529.7,15.8,503,27.9L503,27.9z
	 M832.9,290.3c9.2-3.6,17.2-8.9,23.9-16c6.7-7.1,11.6-14.2,14.6-21.3c3-7.2,4-13.4,3.1-18.8c-1-5.4-4.5-8.1-10.4-8.1
	c-4.8,0-10.1,2-16,5.9c-5.9,3.9-11.9,9.1-18,15.6c-6.1,6.5-12,13.7-17.7,21.9c-5.7,8.1-10.9,16.5-15.5,25.1
	c4.8,0.7,10.2,0.8,16.3,0.4C819.3,294.5,825.8,292.9,832.9,290.3L832.9,290.3z M994.8,197.3c-5.6,8.3-11.5,16.7-17.6,26
	c-8.3,12.6-14.9,25.9-22.6,38.3c-10.2,16.6-25.8,48.1-33.1,66.5c-3.6,9-5.5,16.3-5.7,21.9c-0.2,5.6,1.9,8.9,6.4,9.9
	c5.2,1,10.5-0.6,16-4.7c5.4-4.1,10.5-9.3,15.1-15.6c4.7-6.3,9-13.1,13-20.3c3.8-6.8,6.8-12.7,9.1-17.7c6.1-22.1,14.5-40.3,24.2-63
	c6.3-14.7,14.6-30,21.3-44.1c-7.2,0.7-17,1.5-23.4,2.3C996.7,197,995.8,197.1,994.8,197.3L994.8,197.3z M413.6,185.1
	c4.4,1.2,8.6,2.7,12.5,4.4c3.9,1.7,7.5,3.6,10.6,5.8c7.5-3.7,15.1-9.2,22.8-16.4c7.7-7.3,14.4-15.1,20.1-23.6
	c5.7-8.5,10.1-17,13.3-25.5c3.1-8.5,4-16,2.7-22.5c-2.3-9.9-7.4-18.3-15.1-25.2c-7.8-6.9-17.9-12-30.3-15
	c-15.2,15.7-30.2,34-45.1,54.9c-14.8,20.8-29.8,43.1-45,66.9c7.1-3.1,15.3-5.1,24.5-6C393.9,181.8,403.6,182.6,413.6,185.1z"/>
<path class="st0" d="M1316.5,6.5c-29.4-1.5-53.5,22.6-52,52c1.3,25.1,21.7,45.6,46.9,46.9c29.4,1.5,53.5-22.6,52-52
	C1362.1,28.2,1341.7,7.8,1316.5,6.5z M1316.1,96.8c-24.3,1.2-44.2-18.7-43-43c1.1-20.8,17.9-37.7,38.7-38.7
	c24.3-1.2,44.2,18.7,43,43C1353.8,78.8,1336.9,95.7,1316.1,96.8z"/>
<g>
	<path class="st1" d="M1324,79.4l-7.7-13.8h-1h-10.1v13.8h-10.9V31.1h21c12.6,0,19.8,6.1,19.8,16.8c0,7.5-3.2,12.8-9,15.6l10.3,15.9
		H1324z M1305.2,56.5h10.1c6,0,9.5-2.8,9.5-8.3c0-5.4-3.5-8.1-9.5-8.1h-10.1V56.5z"/>
</g>
<g>
	<g>
		<path class="st1" d="M1385.5,221.8h-52.2l7.1-36.8h148.5l-7.2,36.8h-52.2l-28,141.9h-44L1385.5,221.8z"/>
		<path class="st1" d="M1523,185h119.3l-7.2,36.8h-75.9l-6,31.3h63.2l-7.2,36.8h-63.2l-7.7,36.8h78.1l-7.2,36.8h-122.1L1523,185z"/>
		<path class="st1" d="M1719.9,185h52.8l17,178.7h-46.2l-2.8-94.6c-0.5-17-0.8-33.3-1.1-51.1h-1.1c-6.6,16.8-13.2,33.8-20.3,51.1
			l-39.6,94.6h-48.4L1719.9,185z M1683,290h83l-7.7,33h-83L1683,290z"/>
		<path class="st1" d="M1843.1,185h45.1l3.3,58.3l0.5,27.5h1.1l9.9-26.4l29.1-59.4h45.1l-35.7,178.7h-37.4l10.5-51.7
			c3.8-19.2,17.3-64.6,23.1-84.7h-1.1l-22.8,50.6l-17.9,37.9h-24.2l-2.8-33.5l-2.5-55h-1.1c-2.5,24.7-6.3,61.6-9.6,78.1l-12.1,58.3
			h-36.3L1843.1,185z"/>
	</g>
</g>
</svg>
